<svg width="512" height="512" viewBox="0 0 512 512" fill="none" xmlns="http://www.w3.org/2000/svg">
<g clip-path="url(#clip0_151_614)">
<path d="M512 256C512 114.615 397.385 0 256 0C114.615 0 0 114.615 0 256C0 397.385 114.615 512 256 512C397.385 512 512 397.385 512 256Z" fill="#314647" id="id_239"></path>
<path d="M511.5 256C511.5 114.891 397.109 0.5 256 0.5C114.891 0.5 0.5 114.891 0.5 256C0.5 397.109 114.891 511.5 256 511.5C397.109 511.5 511.5 397.109 511.5 256Z" stroke="#707070" id="id_240"></path>
<path d="M363.146 383.59C342.018 393.124 322.727 396.062 320.062 390.155C317.397 384.248 332.362 371.727 353.491 362.193C374.62 352.659 393.907 349.72 396.575 355.63C399.243 361.54 384.275 374.058 363.146 383.59Z" fill="#2E2E2E" id="id_241"></path>
<path d="M354.382 435.542L344.315 411.589L336.257 392.396L329.462 376.204L314.533 340.67C306.675 321.97 314.114 301.144 330.727 295.318C333.564 294.326 336.549 293.822 339.554 293.828C339.825 293.828 340.099 293.828 340.372 293.853C353.292 294.226 365.839 303.723 370.946 318.328L383.072 352.944L388.504 368.466L411.961 435.542" fill="#b86716" id="id_242"></path>
<path d="M354.382 435.542L344.315 411.589L336.257 392.396L329.462 376.204L314.533 340.67C306.675 321.97 314.114 301.144 330.727 295.318C333.564 294.326 336.549 293.822 339.554 293.828C339.825 293.828 340.099 293.828 340.372 293.853C353.292 294.226 365.839 303.723 370.946 318.328L383.072 352.944L388.504 368.466L411.961 435.542" stroke="#2E2E2E" stroke-width="0.535" stroke-linecap="round" stroke-linejoin="round" id="id_243"></path>
<path d="M396.119 354.913C392.212 349.981 373.704 353.087 353.501 362.181C332.368 371.724 317.383 384.243 320.072 390.166C320.136 390.29 320.212 390.408 320.297 390.518L320.072 390.618L296.731 335.891C287.572 314.406 297.468 289.911 318.281 282.641C322.118 281.289 326.155 280.596 330.223 280.592C344.473 280.592 358.144 289.046 365.156 302.749L396.119 354.913Z" fill="#e3ce12" id="id_244"></path>
<path d="M149.572 383.59C170.703 393.124 189.991 396.062 192.658 390.155C195.325 384.248 180.358 371.727 159.229 362.193C138.1 352.659 118.81 349.72 116.145 355.63C113.48 361.54 128.444 374.058 149.572 383.59Z" fill="#2E2E2E" id="id_245"></path>
<path d="M100.762 435.542L124.219 368.491L129.649 352.943L141.776 318.327C146.983 303.427 159.952 293.827 173.143 293.827H173.317C176.264 293.845 179.187 294.347 181.97 295.314C198.584 301.14 206.048 321.969 198.188 340.666L183.261 376.204V376.229L176.466 392.396L169.224 409.629L158.34 435.542" fill="#ba6a1a" id="id_246"></path>
<path d="M100.762 435.542L124.219 368.491L129.649 352.943L141.776 318.327C146.983 303.427 159.952 293.827 173.143 293.827H173.317C176.264 293.845 179.187 294.347 181.97 295.314C198.584 301.14 206.048 321.969 198.188 340.666L183.261 376.204V376.229L176.466 392.396L169.224 409.629L158.34 435.542" stroke="#2E2E2E" stroke-width="0.535" stroke-linecap="round" stroke-linejoin="round" id="id_247"></path>
<path d="M116.599 354.913C120.506 349.981 139.013 353.087 159.217 362.181C180.352 371.724 195.337 384.243 192.646 390.166C192.583 390.29 192.508 390.408 192.421 390.518L192.646 390.618L215.987 335.898C225.146 314.413 215.252 289.918 194.439 282.648C190.602 281.296 186.564 280.603 182.495 280.599C168.247 280.599 154.574 289.053 147.562 302.756L116.599 354.913Z" fill="#e3cd0c" id="id_248"></path>
<path d="M293.737 171.465C288.006 180.672 288.56 191.578 294.975 195.824C301.39 200.07 311.239 196.051 316.975 186.844C322.711 177.637 322.152 166.733 315.737 162.485C309.322 158.237 299.47 162.261 293.737 171.465Z" fill="#ffffff" stroke="#2E2E2E" stroke-width="0.535" stroke-linecap="round" stroke-linejoin="round" id="id_249"></path>
<path d="M310.906 166.905C312.304 167.451 313.533 168.355 314.47 169.526C315.407 170.698 316.02 172.095 316.246 173.578C316.473 175.061 316.305 176.577 315.76 177.975C315.215 179.373 314.311 180.602 313.14 181.54" stroke="#2E2E2E" stroke-width="0.535" stroke-linecap="round" stroke-linejoin="round" id="id_250"></path>
<path d="M216.352 171.465C222.085 180.672 221.532 191.578 215.114 195.824C208.696 200.07 198.85 196.051 193.119 186.844C187.388 177.637 187.939 166.733 194.356 162.485C200.773 158.237 210.621 162.261 216.352 171.465Z" fill="#F5F5FF" stroke="#2E2E2E" stroke-width="0.535" stroke-linecap="round" stroke-linejoin="round" id="id_251"></path>
<path d="M199.182 166.905C197.785 167.451 196.556 168.355 195.618 169.526C194.681 170.698 194.069 172.095 193.842 173.578C193.616 175.061 193.784 176.578 194.33 177.975C194.875 179.373 195.779 180.602 196.95 181.54" stroke="#2E2E2E" stroke-width="0.535" stroke-linecap="round" stroke-linejoin="round" id="id_252"></path>
<path d="M283.488 274.643C283.613 278.296 283.009 281.937 281.711 285.354C280.414 288.772 278.449 291.896 275.931 294.546C273.413 297.196 270.393 299.317 267.046 300.788C263.7 302.258 260.094 303.047 256.439 303.109C252.785 303.17 249.154 302.504 245.76 301.148C242.366 299.792 239.275 297.774 236.669 295.211C234.063 292.648 231.993 289.591 230.581 286.22C229.169 282.849 228.442 279.23 228.442 275.575C228.442 275.264 228.442 274.954 228.47 274.643L231.527 233.61L232.303 223.223L233.83 202.836H278.1L280.536 235.06L282.272 258.503L283.488 274.643Z" fill="#F5F5FF" stroke="#2E2E2E" stroke-width="0.559" stroke-linecap="round" stroke-linejoin="round" id="id_253"></path>
<path d="M282.272 258.504C267.739 259.54 251.73 252.314 240.748 238.273C237.159 233.732 234.309 228.653 232.303 223.224L233.83 202.837H278.1L280.536 235.061L282.272 258.504Z" fill="#2E2E2E" id="id_254"></path>
<path d="M303.525 196.784C301.62 201.546 299.201 206.086 296.311 210.323C290.534 218.923 282.895 227.011 275.257 232.144C266.877 237.773 255.892 239.609 246.344 236.336C238.831 233.78 232.632 228.401 227.102 222.721C220.184 215.63 213.86 207.695 210.314 198.421C207.586 191.23 206.397 183.221 206.073 175.038C205.925 170.748 205.999 166.438 206.198 162.118C206.546 155.027 207.215 148.009 207.834 141.518C208.538 133.859 211.033 126.473 215.118 119.957C219.203 113.44 224.764 107.976 231.351 104.005C237.938 100.034 245.366 97.6688 253.036 97.0992C260.706 96.5295 268.403 97.7719 275.504 100.726C282.479 103.7 288.681 108.232 293.633 113.974C298.585 119.717 302.156 126.517 304.071 133.854C306.551 143.699 305.906 153.891 305.93 163.909C305.93 164.528 305.93 165.123 305.956 165.744C306.005 168.744 306.156 171.744 306.204 174.768C306.426 182.254 306.278 189.718 303.525 196.784Z" fill="#F5F5FF" stroke="#2E2E2E" stroke-width="0.535" stroke-linecap="round" stroke-linejoin="round" id="id_255"></path>
<path d="M248.396 147.397C252.671 147.73 256.956 146.878 260.778 144.934C264.502 142.878 267.462 139.224 267.971 135.034C269.402 137.823 271.411 140.274 273.865 142.224C276.319 144.174 279.16 145.578 282.2 146.342C285.24 147.105 288.408 147.212 291.492 146.653C294.576 146.095 297.505 144.884 300.084 143.103C306.464 138.693 310.13 130.103 307.361 122.89C304.304 114.937 295.153 111.208 286.761 109.384C270.325 105.868 253.295 106.245 237.031 110.484C232.041 111.784 218.155 114.326 216.257 119.74C214.31 125.293 222.257 134.185 225.881 137.58C231.996 143.401 239.969 146.877 248.396 147.397Z" fill="#2E2E2E" id="id_256"></path>
<path d="M268.83 153.089C271.019 151.816 273.375 150.855 275.83 150.236C278.394 149.558 281.041 149.253 283.691 149.33C286.479 149.392 289.217 150.081 291.702 151.344C294.153 152.561 296.126 154.563 297.308 157.031C295.082 156.257 292.755 155.811 290.4 155.705C288.286 155.674 286.174 155.869 284.1 156.287C279.917 157.033 275.667 158.487 270.884 159.079C270.147 159.171 269.4 159.007 268.77 158.614C268.139 158.22 267.664 157.622 267.422 156.919C267.181 156.217 267.189 155.452 267.444 154.754C267.7 154.057 268.188 153.468 268.826 153.088L268.83 153.089Z" fill="#2E2E2E" id="id_257"></path>
<path d="M246.433 159.08C241.652 158.48 237.402 157.034 233.219 156.288C231.146 155.87 229.034 155.675 226.919 155.706C224.565 155.812 222.238 156.259 220.011 157.032C221.193 154.564 223.167 152.562 225.617 151.345C228.104 150.082 230.843 149.393 233.631 149.331C236.281 149.254 238.928 149.559 241.49 150.237C243.946 150.856 246.302 151.816 248.49 153.09C249.128 153.471 249.615 154.059 249.87 154.756C250.126 155.454 250.133 156.217 249.892 156.92C249.651 157.622 249.176 158.22 248.546 158.613C247.916 159.007 247.17 159.171 246.433 159.08Z" fill="#2E2E2E" id="id_258"></path>
<path d="M246.449 174.778L243.942 172.189C241.345 169.548 237.85 167.979 234.15 167.793C230.451 167.608 226.816 168.82 223.968 171.189L221.092 173.562" stroke="#2E2E2E" stroke-width="1.167" stroke-linecap="round" stroke-linejoin="round" id="id_259"></path>
<path d="M238.12 171.341C237.998 170.506 237.631 169.726 237.065 169.1C236.499 168.474 235.761 168.029 234.943 167.823C234.124 167.617 233.263 167.658 232.468 167.941C231.673 168.224 230.98 168.736 230.477 169.413C229.973 170.09 229.681 170.901 229.639 171.744C229.596 172.587 229.804 173.423 230.237 174.148C230.67 174.872 231.308 175.452 232.07 175.814C232.833 176.175 233.685 176.303 234.52 176.18C235.074 176.099 235.607 175.909 236.088 175.622C236.569 175.335 236.989 174.956 237.323 174.507C237.657 174.057 237.9 173.546 238.037 173.003C238.173 172.46 238.202 171.895 238.12 171.341Z" fill="#723f8f" id="id_260"></path>
<path d="M245.964 174.858C243.911 176.123 241.562 176.827 239.151 176.9" stroke="#2E2E2E" stroke-width="0.501" stroke-linecap="round" stroke-linejoin="round" id="id_261"></path>
<path d="M246.189 169.677C244.879 168.136 243.275 166.873 241.469 165.962C239.664 165.05 237.695 164.509 235.677 164.37" stroke="#2E2E2E" stroke-width="0.501" stroke-linecap="round" stroke-linejoin="round" id="id_262"></path>
<path d="M268.21 174.778L270.72 172.189C273.317 169.547 276.812 167.978 280.512 167.793C284.212 167.608 287.846 168.82 290.694 171.189L293.568 173.562" stroke="#2E2E2E" stroke-width="1.167" stroke-linecap="round" stroke-linejoin="round" id="id_263"></path>
<path d="M276.545 171.341C276.668 170.506 277.035 169.726 277.6 169.099C278.166 168.472 278.905 168.028 279.723 167.821C280.542 167.615 281.403 167.656 282.198 167.939C282.994 168.222 283.687 168.734 284.191 169.412C284.695 170.089 284.986 170.9 285.029 171.743C285.072 172.587 284.863 173.423 284.43 174.148C283.997 174.872 283.359 175.452 282.596 175.814C281.833 176.176 280.98 176.303 280.145 176.18C279.026 176.015 278.019 175.413 277.344 174.506C276.668 173.598 276.381 172.46 276.545 171.341Z" fill="#2E2E2E" id="id_264"></path>
<path d="M268.699 174.858C270.752 176.123 273.102 176.827 275.512 176.9" stroke="#2E2E2E" stroke-width="0.501" stroke-linecap="round" stroke-linejoin="round" id="id_265"></path>
<path d="M268.474 169.677C269.784 168.136 271.389 166.873 273.195 165.962C275.001 165.05 276.97 164.509 278.988 164.37" stroke="#2E2E2E" stroke-width="0.501" stroke-linecap="round" stroke-linejoin="round" id="id_266"></path>
<path d="M254.416 206.634C255.174 207.365 256.187 207.773 257.24 207.773C258.293 207.773 259.306 207.365 260.064 206.634C261.234 205.503 263.346 206.196 264.956 206.434C266.547 206.793 268.19 206.865 269.806 206.647C270.955 206.404 271.964 205.722 272.619 204.747" stroke="#2E2E2E" stroke-width="0.446" stroke-linecap="round" stroke-linejoin="round" id="id_267"></path>
<path d="M254.416 206.632C253.246 205.501 251.134 206.194 249.522 206.432C247.932 206.791 246.29 206.863 244.674 206.645C244.03 206.517 243.432 206.223 242.937 205.791C242.443 205.36 242.07 204.806 241.856 204.186" stroke="#2E2E2E" stroke-width="0.446" stroke-linecap="round" stroke-linejoin="round" id="id_268"></path>
<path d="M249.776 211.232C253.943 212.67 258.439 212.86 262.712 211.777" stroke="#2E2E2E" stroke-width="0.446" stroke-linecap="round" stroke-linejoin="round" id="id_269"></path>
<path d="M256.972 225.257V232.935" stroke="#2E2E2E" stroke-width="0.535" stroke-linecap="round" stroke-linejoin="round" id="id_270"></path>
<path d="M257.321 190.826V174.468" stroke="#2E2E2E" stroke-width="0.535" stroke-linecap="round" stroke-linejoin="round" id="id_271"></path>
<path d="M251.837 194.022L254.597 195.913C255.393 196.509 256.361 196.831 257.356 196.831C258.351 196.831 259.318 196.509 260.115 195.913L262.875 194.022" stroke="#2E2E2E" stroke-width="0.573" stroke-linecap="round" stroke-linejoin="round" id="id_272"></path>
<path d="M305.931 163.904C304.665 163.362 303.544 162.529 302.659 161.473C301.243 159.692 300.183 157.655 299.535 155.473C296.212 145.951 296.063 134.718 297.822 124.773C286.541 124.947 275.63 117.93 270.645 107.788C257.628 116.094 242.601 119.542 227.202 118.773C226.829 127.045 224.774 135.154 221.163 142.606C217.553 150.058 212.462 156.696 206.202 162.116C206.55 155.025 207.219 148.007 207.838 141.516C208.542 133.857 211.037 126.471 215.122 119.955C219.207 113.438 224.768 107.974 231.355 104.003C237.942 100.032 245.37 97.6668 253.04 97.0972C260.71 96.5275 268.407 97.7699 275.508 100.724C282.483 103.698 288.685 108.23 293.637 113.972C298.589 119.715 302.159 126.515 304.075 133.852C306.552 143.694 305.907 153.886 305.931 163.904Z" fill="#2E2E2E" id="id_273"></path>
<path d="M202.448 124.439C205.933 104.339 225.027 79.682 248.048 76.612C271.069 73.542 296.142 92.312 306.177 110.607C272.395 121.228 238.138 127.365 202.448 124.439Z" fill="#db16de" stroke="#2E2E2E" stroke-width="0.576" stroke-linecap="round" stroke-linejoin="round" id="id_274"></path>
<path d="M311.071 117.534C296.383 128.693 276.641 133.717 257.209 136.062C237.777 138.407 218.028 138.4 198.661 141.114C196.167 137.934 195.12 134.973 195.676 131.165C196.345 127.165 198.53 123.577 201.776 121.147C237.954 118.957 273.735 113.168 307.542 101.838C309.215 101.859 314.297 112.285 311.071 117.534Z" fill="#deca16" stroke="#2E2E2E" stroke-width="0.5" stroke-linecap="round" stroke-linejoin="round" id="id_275"></path>
<path d="M208.636 139.752C207.724 137.351 207.379 134.772 207.628 132.215C207.878 129.659 208.714 127.195 210.073 125.015" stroke="#2E2E2E" stroke-width="0.535" stroke-linecap="round" stroke-linejoin="round" id="id_276"></path>
<path d="M296.028 110.269C299.042 114.107 300.976 118.68 301.628 123.516" stroke="#2E2E2E" stroke-width="0.535" stroke-linecap="round" stroke-linejoin="round" id="id_277"></path>
<path d="M276.295 116.774C279.115 121.313 280.83 126.451 281.301 131.774" stroke="#2E2E2E" stroke-width="0.535" stroke-linecap="round" stroke-linejoin="round" id="id_278"></path>
<path d="M223.967 124.505C223.391 126.913 223.34 129.416 223.818 131.845C224.297 134.274 225.293 136.572 226.739 138.581" stroke="#2E2E2E" stroke-width="0.535" stroke-linecap="round" stroke-linejoin="round" id="id_279"></path>
<path d="M250.423 122.331C252.099 126.873 252.961 131.675 252.97 136.516" stroke="#2E2E2E" stroke-width="0.535" stroke-linecap="round" stroke-linejoin="round" id="id_280"></path>
<path d="M238.915 126.042C238.7 128.198 238.976 130.375 239.722 132.41C240.467 134.444 241.664 136.284 243.221 137.791C243.295 137.531 243.367 137.274 243.439 137.017" stroke="#2E2E2E" stroke-width="0.535" stroke-linecap="round" stroke-linejoin="round" id="id_281"></path>
<path d="M266.207 123.054C267.181 126.553 267.341 130.228 266.675 133.798" stroke="#2E2E2E" stroke-width="0.535" stroke-linecap="round" stroke-linejoin="round" id="id_282"></path>
<path d="M345.133 435.542H168.308L169.225 409.629L169.87 390.929L170.688 367.967L173.316 293.825L173.716 282.791L179.416 280.733L212.569 268.756L218.969 266.45L222.143 265.284L230.425 262.309L232.925 261.392H280.783L281.775 261.764L291.075 265.112L294.224 266.252L300.624 268.558L334.744 280.882L340.001 282.791L340.373 293.85L341.786 335.608L342.852 367.521L343.62 390.607V390.731L344.314 411.585L345.133 435.542Z" fill="#7d2eab" id="id_283"></path>
</g>
<defs>
<clipPath id="clip0_151_614">
<rect width="512" height="512" fill="#f5d6b8" id="id_284"></rect>
</clipPath>
</defs>
</svg>